<svg width="25" height="17" viewBox="0 0 25 17" fill="none" xmlns="http://www.w3.org/2000/svg">
<path d="M13.3106 9.17139L9.55809 15.5981L5.80565 9.17139H13.3106ZM14.3158 8.59698H4.79633L9.55809 16.7349L14.3158 8.59698Z" fill="#263238"/>
<path d="M19.8347 1.17801L23.5871 7.60475H16.0822L19.8347 1.17801ZM19.8347 0.0292358L15.0729 8.16709H24.5964L19.8347 0.0292358Z" fill="#263238"/>
<path d="M0.234009 0.0292358L4.2266 7.22719L8.58952 0.209978L0.234009 0.0292358Z" fill="#4CAF4F"/>
<path d="M9.55825 0.65979L13.7462 7.81758H5.36218L9.55825 0.65979Z" fill="#4CAF4F"/>
<path d="M14.8247 9.38025L19.0167 16.7349H10.4332L14.6944 9.38025H14.8247Z" fill="#4CAF4F"/>
<path d="M15.7323 8.93439L19.8348 16.1765L23.9942 8.93439H15.7323Z" fill="#4CAF4F"/>
</svg>
