<svg width="34" height="35" viewBox="0 0 34 35" fill="none" xmlns="http://www.w3.org/2000/svg">
<g clip-path="url(#clip0_3_564)">
<path d="M11.7141 6.78613C13.2533 6.78623 14.7577 7.23038 16.0481 8.06152L16.303 8.23242C17.5641 9.11486 18.5424 10.341 19.1233 11.7617L19.2336 12.0488C19.7611 13.495 19.8595 15.0604 19.5208 16.5576L19.4475 16.8555C19.0241 18.4418 18.1229 19.86 16.8665 20.917L16.4436 21.2725L16.9475 21.5C19.017 22.4365 20.7977 23.9107 22.1047 25.7686L22.1096 25.7754L22.1155 25.7822C22.1915 25.8797 22.2518 25.9883 22.2952 26.1035L22.3333 26.2217C22.3753 26.3812 22.3838 26.5478 22.3596 26.7109C22.3415 26.8332 22.3048 26.9517 22.2512 27.0625L22.1917 27.1709C22.1267 27.2763 22.0465 27.3713 21.9534 27.4521L21.8567 27.5283C21.7219 27.6232 21.5688 27.6895 21.4075 27.7236C21.2864 27.7492 21.162 27.7568 21.0393 27.7451L20.9172 27.7266C20.7554 27.6943 20.6011 27.6295 20.4651 27.5361H20.4661C20.33 27.4427 20.2135 27.323 20.1252 27.1836L20.1213 27.1768L20.1165 27.1699L19.9348 26.9199C19.0723 25.7668 17.9772 24.8076 16.72 24.1055L16.4485 23.959C14.9861 23.1989 13.3622 22.8018 11.7141 22.8018C10.1689 22.8018 8.64466 23.1514 7.25513 23.8213L6.97876 23.959C5.60757 24.6717 4.41644 25.6846 3.49243 26.9199L3.31079 27.1699L3.30981 27.1709C3.22628 27.2908 3.12211 27.3944 3.0022 27.4766L2.8772 27.5508C2.74762 27.6182 2.60739 27.6616 2.46313 27.6787L2.31763 27.6875H2.31567C2.12804 27.6881 1.94379 27.6439 1.77759 27.5605L1.61841 27.4648L1.61646 27.4639L1.52173 27.3896C1.31025 27.2065 1.16766 26.9548 1.11938 26.6768C1.07113 26.3987 1.12065 26.1138 1.25806 25.8701L1.32251 25.7686C2.62958 23.9107 4.41023 22.4365 6.47974 21.5L6.98364 21.2725L6.56079 20.917C5.38293 19.9261 4.51722 18.618 4.0647 17.1514L3.97974 16.8555C3.58284 15.3684 3.62392 13.8009 4.09399 12.3398L4.1936 12.0488C4.72098 10.6027 5.65328 9.34169 6.87622 8.41406L7.12427 8.23242C8.46949 7.29115 10.0723 6.78613 11.7141 6.78613ZM22.3499 6.7959H22.3518C23.8918 6.7915 25.3982 7.2322 26.6907 8.06152L26.9465 8.2334C28.2097 9.11444 29.1892 10.3404 29.7708 11.7617L29.8821 12.0488C30.41 13.4957 30.5077 15.062 30.1672 16.5596L30.094 16.8574C29.6685 18.4442 28.7639 19.8615 27.5042 20.916L27.0793 21.2715L27.5842 21.5C29.5245 22.3781 31.2112 23.7285 32.4915 25.4248L32.7415 25.7686L32.7434 25.7705C32.8131 25.868 32.8676 25.9756 32.9055 26.0889L32.9377 26.2031C32.9644 26.32 32.9738 26.4404 32.9651 26.5596L32.9504 26.6777C32.9299 26.7958 32.8921 26.9101 32.8381 27.0166L32.7786 27.1201C32.7141 27.221 32.635 27.3113 32.5442 27.3887L32.4495 27.4619L32.4456 27.4648C32.2423 27.6102 31.9982 27.6873 31.7483 27.6865C31.5532 27.6852 31.3608 27.6379 31.1877 27.5479C31.0579 27.4802 30.9417 27.3901 30.844 27.2822L30.7522 27.168C29.8032 25.8219 28.5449 24.7229 27.0833 23.9639C25.7126 23.2521 24.2005 22.8585 22.6594 22.8105L22.3508 22.8057L22.2297 22.7998C21.9909 22.776 21.7641 22.6824 21.5784 22.5303L21.4895 22.4492C21.2611 22.2208 21.1321 21.9109 21.1321 21.5879C21.1321 21.3051 21.2307 21.0322 21.4084 20.8154L21.4895 20.7266C21.7179 20.4982 22.0278 20.3701 22.3508 20.3701C23.7354 20.37 25.0667 19.8537 26.0881 18.9287L26.2883 18.7383C27.3324 17.694 27.9192 16.2775 27.9192 14.8008C27.9191 13.4164 27.4036 12.0849 26.4788 11.0635L26.2883 10.8633C25.3092 9.88416 24.0027 9.30746 22.6262 9.23926L22.3508 9.23242C21.9692 9.23172 21.5888 9.27101 21.2161 9.34961L20.845 9.44141L20.7239 9.47168C20.6054 9.49453 20.484 9.49923 20.3635 9.48633C20.2429 9.47341 20.125 9.44306 20.0139 9.39551L19.9055 9.34277C19.7994 9.28433 19.7025 9.21068 19.6184 9.12402L19.5393 9.0332C19.4639 8.93816 19.4027 8.8323 19.3586 8.71973L19.3206 8.60547C19.2877 8.4887 19.2728 8.36789 19.2756 8.24707L19.2844 8.12695C19.2992 8.00666 19.3319 7.88957 19.3811 7.7793L19.4358 7.67188C19.4959 7.56666 19.5705 7.47038 19.6584 7.3877L19.7512 7.30957C19.8473 7.23579 19.9536 7.17703 20.0667 7.13477L20.1819 7.09766L20.1877 7.09668C20.8029 6.92155 21.4369 6.82206 22.0754 6.80078L22.3499 6.7959ZM12.8 9.33984C11.7874 9.13841 10.74 9.22247 9.77466 9.58105L9.58228 9.65625C8.62848 10.0514 7.80481 10.7037 7.20142 11.5381L7.08325 11.707C6.47143 12.6227 6.14484 13.6995 6.14478 14.8008C6.14478 16.1854 6.66024 17.5176 7.58521 18.5391L7.77563 18.7383C8.81994 19.7826 10.2372 20.3701 11.7141 20.3701C12.7465 20.37 13.7573 20.0829 14.634 19.543L14.8069 19.4316C15.6654 18.858 16.3466 18.0573 16.7756 17.1211L16.8586 16.9316C17.2536 15.9779 17.3745 14.9345 17.2112 13.918L17.175 13.7148C16.9736 12.7021 16.495 11.7664 15.7942 11.0117L15.6516 10.8633C14.9215 10.1331 14.0032 9.62193 13.0012 9.38379L12.8 9.33984Z" fill="#4CAF4F" stroke="#4CAF4F" stroke-width="0.696069"/>
</g>
<defs>
<clipPath id="clip0_3_564">
<rect width="33.4113" height="33.4113" fill="white" transform="translate(0.228516 0.705811)"/>
</clipPath>
</defs>
</svg>
