<svg width="35" height="34" viewBox="0 0 35 34" fill="none" xmlns="http://www.w3.org/2000/svg">
<path d="M7.39465 6.1167H27.2325C28.3142 6.1167 29.3544 6.52012 30.1525 7.24268L30.3087 7.39111C31.1245 8.20692 31.5831 9.31356 31.5831 10.4673V24.0405C31.5831 25.1943 31.1246 26.3008 30.3087 27.1167C29.4929 27.9326 28.3864 28.3911 27.2325 28.3911H7.39465C6.31304 28.3911 5.27272 27.9887 4.47473 27.2661L4.31848 27.1167C3.50279 26.3009 3.04407 25.1942 3.04407 24.0405V10.4673C3.04412 9.38558 3.44737 8.34538 4.17004 7.54736L4.31848 7.39111C5.08328 6.62632 6.10369 6.17598 7.17883 6.12256L7.39465 6.1167ZM4.43665 24.0405C4.43665 24.727 4.67529 25.3891 5.10657 25.9155L5.30286 26.1323C5.85759 26.6871 6.61015 26.9995 7.39465 26.9995H27.2325C28.0171 26.9995 28.7696 26.6871 29.3243 26.1323C29.8791 25.5775 30.1915 24.8251 30.1915 24.0405V13.7739H4.43665V24.0405ZM22.5343 20.7349H25.6671C25.8053 20.7349 25.9395 20.7755 26.0529 20.8511L26.1593 20.938C26.2897 21.0684 26.3623 21.2457 26.3624 21.4302C26.3624 21.6146 26.2896 21.7919 26.1593 21.9224C26.0289 22.0528 25.8516 22.1264 25.6671 22.1265H22.5343C22.3497 22.1264 22.1726 22.0529 22.0421 21.9224C21.9117 21.7919 21.838 21.6147 21.838 21.4302C21.8381 21.2919 21.8796 21.1578 21.9552 21.0444L22.0421 20.938C22.1726 20.8076 22.3498 20.7349 22.5343 20.7349ZM7.39465 7.50928C6.61015 7.50934 5.85759 7.82075 5.30286 8.37549C4.74812 8.93022 4.43671 9.68278 4.43665 10.4673V12.3813H30.1915V10.4673C30.1915 9.78084 29.9529 9.11865 29.5216 8.59229L29.3243 8.37549C28.7696 7.82087 28.017 7.50928 27.2325 7.50928H7.39465Z" fill="#4CAF4F" stroke="#4CAF4F" stroke-width="0.696069"/>
</svg>
