<svg width="24" height="27" viewBox="0 0 24 27" fill="none" xmlns="http://www.w3.org/2000/svg">
<path d="M23.0713 25.7836V22.9993C23.0713 21.5224 22.4847 20.1061 21.4403 19.0618C20.396 18.0175 18.9797 17.4308 17.5028 17.4308H16.1106C15.7414 17.4308 15.3873 17.2841 15.1263 17.023C14.8652 16.7619 14.7185 16.4078 14.7185 16.0386V9.07793C14.7185 8.3395 14.4252 7.6313 13.903 7.10915C13.3809 6.587 12.6727 6.29365 11.9342 6.29365C11.1958 6.29365 10.4876 6.587 9.96545 7.10915C9.4433 7.6313 9.14995 8.3395 9.14995 9.07793V21.6072L5.80882 17.1523C5.54947 16.8065 5.21318 16.5259 4.82656 16.3326C4.43995 16.1393 4.01364 16.0386 3.5814 16.0386H2.97721C1.77301 16.0386 0.797119 17.0145 0.797119 18.2187C0.797119 18.6141 0.904314 19.0025 1.10757 19.3408L4.97354 25.7836M11.9342 2.11724V0.725098V2.11724ZM20.2871 10.4701H21.6792H20.2871ZM2.18926 10.4701H3.5814H2.18926ZM5.45104 3.98688L4.4668 3.00264L5.45104 3.98688ZM18.4174 3.98688L19.4017 3.00264L18.4174 3.98688Z" fill="#4CAF4F"/>
<path d="M23.0713 25.7836V22.9993C23.0713 21.5224 22.4847 20.1061 21.4403 19.0618C20.396 18.0175 18.9797 17.4308 17.5028 17.4308H16.1106C15.7414 17.4308 15.3873 17.2841 15.1263 17.023C14.8652 16.7619 14.7185 16.4078 14.7185 16.0386V9.07793C14.7185 8.33949 14.4252 7.6313 13.903 7.10915C13.3809 6.587 12.6727 6.29365 11.9342 6.29365V6.29365C11.1958 6.29365 10.4876 6.587 9.96545 7.10915C9.4433 7.6313 9.14995 8.33949 9.14995 9.07793V21.6072L5.80882 17.1523C5.54947 16.8065 5.21318 16.5259 4.82656 16.3326C4.43995 16.1393 4.01364 16.0386 3.5814 16.0386H2.97721C1.77301 16.0386 0.797119 17.0145 0.797119 18.2187C0.797119 18.6141 0.904314 19.0025 1.10757 19.3408L4.97354 25.7836M11.9342 2.11724V0.725098M20.2871 10.4701H21.6792M2.18926 10.4701H3.5814M5.45104 3.98688L4.4668 3.00264M18.4174 3.98688L19.4017 3.00264" stroke="#4CAF4F" stroke-width="1.39214" stroke-linecap="round" stroke-linejoin="round"/>
</svg>
